<svg width="24" height="24" viewBox="0 0 24 24" fill="none" xmlns="http://www.w3.org/2000/svg">
<path d="M17.75 2.00098C18.9409 2.00098 19.9156 2.92614 19.9948 4.09693L20 4.25098V19.749C20 20.9399 19.0748 21.9147 17.904 21.9939L17.75 21.999H6.25012C5.05926 21.999 4.08448 21.0739 4.00531 19.9031L4.00012 19.749V4.25098C4.00012 3.06011 4.92528 2.08533 6.09607 2.00617L6.25012 2.00098H17.75ZM17.75 3.50098H6.25012C5.87043 3.50098 5.55663 3.78313 5.50697 4.14921L5.50012 4.25098V19.749C5.50012 20.1287 5.78228 20.4425 6.14835 20.4922L6.25012 20.499H17.75C18.1297 20.499 18.4435 20.2169 18.4931 19.8508L18.5 19.749V4.25098C18.5 3.87128 18.2178 3.55749 17.8518 3.50782L17.75 3.50098ZM7.00006 15.75C7.00006 15.3358 7.33585 15 7.75006 15H16.2501C16.6643 15 17.0001 15.3358 17.0001 15.75C17.0001 16.1642 16.6643 16.5 16.2501 16.5H7.75006C7.33585 16.5 7.00006 16.1642 7.00006 15.75ZM7.00006 7.75001C7.00006 7.3358 7.33585 7.00001 7.75006 7.00001H16.2501C16.6643 7.00001 17.0001 7.3358 17.0001 7.75001C17.0001 8.16422 16.6643 8.50001 16.2501 8.50001H7.75006C7.33585 8.50001 7.00006 8.16422 7.00006 7.75001ZM7.00006 11.75C7.00006 11.3358 7.33585 11 7.75006 11H16.2501C16.6643 11 17.0001 11.3358 17.0001 11.75C17.0001 12.1642 16.6643 12.5 16.2501 12.5H7.75006C7.33585 12.5 7.00006 12.1642 7.00006 11.75Z" fill="#747688"/>
</svg>
